<mxfile host="app.diagrams.net" modified="2021-04-01T10:07:35.976Z" agent="5.0 (Macintosh; Intel Mac OS X 10_14_3) AppleWebKit/537.36 (KHTML, like Gecko) Chrome/89.0.4389.90 Safari/537.36" etag="NDIjjqVrnCqlfZMU98fY" version="14.5.1" type="github">
  <diagram id="9fnjXT7nlAm7Ix4f8WDv" name="Page-1">
    <mxGraphModel dx="1498" dy="1180" grid="1" gridSize="10" guides="1" tooltips="1" connect="1" arrows="1" fold="1" page="1" pageScale="1" pageWidth="700" pageHeight="200" math="0" shadow="0">
      <root>
        <mxCell id="0" />
        <mxCell id="1" parent="0" />
        <mxCell id="JjwtSvPaQ9A9AQO6rjx3-4" value="&lt;font style=&quot;font-size: 23px&quot;&gt;6位目的mac地址&lt;/font&gt;" style="rounded=1;whiteSpace=wrap;html=1;fontSize=23;fillColor=#F19C99;" parent="1" vertex="1">
          <mxGeometry x="80" y="-120" width="180" height="60" as="geometry" />
        </mxCell>
        <mxCell id="JjwtSvPaQ9A9AQO6rjx3-5" value="&lt;font style=&quot;font-size: 23px&quot;&gt;6位 源mac地址&lt;/font&gt;" style="rounded=1;whiteSpace=wrap;html=1;fontSize=23;fillColor=#F19C99;" parent="1" vertex="1">
          <mxGeometry x="260" y="-120" width="180" height="60" as="geometry" />
        </mxCell>
        <mxCell id="JjwtSvPaQ9A9AQO6rjx3-6" value="&lt;font style=&quot;font-size: 18px&quot;&gt;2位&lt;br&gt;类型&lt;/font&gt;" style="rounded=1;whiteSpace=wrap;html=1;fontSize=23;fillColor=#FDD276;" parent="1" vertex="1">
          <mxGeometry x="440" y="-120" width="60" height="60" as="geometry" />
        </mxCell>
        <mxCell id="JjwtSvPaQ9A9AQO6rjx3-7" value="&lt;font style=&quot;font-size: 23px&quot;&gt;46~1500位&amp;nbsp; 数据&lt;/font&gt;" style="rounded=1;whiteSpace=wrap;html=1;fontSize=23;fillColor=#6DB5A8;" parent="1" vertex="1">
          <mxGeometry x="500" y="-120" width="670" height="60" as="geometry" />
        </mxCell>
        <mxCell id="JjwtSvPaQ9A9AQO6rjx3-9" value="&lt;font style=&quot;font-size: 23px&quot;&gt;4位 FCS&lt;/font&gt;" style="rounded=1;whiteSpace=wrap;html=1;fontSize=23;fillColor=#5A6EAB;" parent="1" vertex="1">
          <mxGeometry x="1170" y="-120" width="120" height="60" as="geometry" />
        </mxCell>
      </root>
    </mxGraphModel>
  </diagram>
</mxfile>
